<?xml version="1.0" encoding="UTF-8"?>
<svg width="100px" height="100px" viewBox="0 0 100 100" version="1.1" xmlns="http://www.w3.org/2000/svg" xmlns:xlink="http://www.w3.org/1999/xlink">
    <!-- Generator: Sketch 47 (45396) - http://www.bohemiancoding.com/sketch -->
    <title>Group</title>
    <desc>Created with Sketch.</desc>
    <defs></defs>
    <g id="Page-1" stroke="none" stroke-width="1" fill="none" fill-rule="evenodd">
        <g id="Group">
            <rect id="Rectangle" fill="#FC4654" x="0" y="0" width="100" height="100" rx="20"></rect>
            <path d="M74.4186047,67.4418605 C70.8581395,67.4418605 67.8,69.4651163 66.2348837,72.4069767 L34.8651163,64.9372093 C34.8511628,64.1767442 34.7255814,63.4488372 34.5395349,62.7465116 L54.044186,51.7744186 C56.1767442,54.227907 59.2837209,55.8139535 62.7906977,55.8139535 C69.2139535,55.8139535 74.4186047,50.6093023 74.4186047,44.1860465 C74.4186047,37.7627907 69.2139535,32.5581395 62.7906977,32.5581395 C60.6209302,32.5581395 58.6162791,33.1883721 56.8767442,34.2255814 L45.6581395,21.8813953 C46.1837209,20.9 46.5116279,19.7976744 46.5116279,18.6046512 C46.5116279,14.7511628 43.3883721,11.627907 39.5348837,11.627907 C35.6813953,11.627907 32.5581395,14.7511628 32.5581395,18.6046512 C32.5581395,22.4581395 35.6813953,25.5813953 39.5348837,25.5813953 C40.4930233,25.5813953 41.4069767,25.3860465 42.2395349,25.0372093 L53.4302326,37.3465116 C52.0209302,39.2697674 51.1627907,41.6186047 51.1627907,44.1860465 C51.1627907,45.4255814 51.4069767,46.5976744 51.7697674,47.7209302 L32.2767442,58.6837209 C30.5837209,56.9209302 28.2162791,55.8139535 25.5813953,55.8139535 C20.444186,55.8139535 16.2790698,59.9790698 16.2790698,65.1162791 C16.2790698,70.2534884 20.444186,74.4186047 25.5813953,74.4186047 C29.1418605,74.4186047 32.2,72.3930233 33.7651163,69.4534884 L65.1348837,76.9232558 C65.2325581,81.9767442 69.3418605,86.0465116 74.4186047,86.0465116 C79.555814,86.0465116 83.7209302,81.8813953 83.7209302,76.744186 C83.7209302,71.6069767 79.555814,67.4418605 74.4186047,67.4418605 Z" id="Path" fill="#FFFFFF"></path>
        </g>
    </g>
</svg>