<?xml version="1.0" encoding="UTF-8"?>
<svg width="74px" height="94px" viewBox="0 0 74 94" version="1.1" xmlns="http://www.w3.org/2000/svg" xmlns:xlink="http://www.w3.org/1999/xlink">
    <!-- Generator: Sketch 44.1 (41455) - http://www.bohemiancoding.com/sketch -->
    <title>noun_469370_cc</title>
    <desc>Created with Sketch.</desc>
    <defs></defs>
    <g id="Page-1" stroke="none" stroke-width="1" fill="none" fill-rule="evenodd">
        <g id="noun_469370_cc" fill-rule="nonzero" fill="#F38F19">
            <g id="Group">
                <path d="M37,0.5 C17.1,0.5 0.9,16.6 0.9,36.6 L0.9,54.3 L0.9,61.4 L0.9,76.8 C0.9,80.8 4.1,84 8.1,84 L8.2,84 C12.2,84 15.4,80.8 15.4,76.8 L15.4,68.6 C15.4,64.6 18.6,61.4 22.6,61.4 L22.7,61.4 C26.7,61.4 29.9,64.6 29.9,68.6 L29.9,86.4 C29.9,90.4 33.1,93.6 37.1,93.6 L37.2,93.6 C41.2,93.6 44.4,90.4 44.4,86.4 L44.4,68.5 C44.4,64.5 47.6,61.3 51.6,61.3 C55.6,61.3 58.8,64.5 58.8,68.5 L58.8,76.1 C58.8,80.1 62,83.3 66,83.3 L66.1,83.3 C70.1,83.3 73.3,80.1 73.3,76.1 L73.3,59.1 L73.3,54.2 L73.3,36.6 C73.1,16.7 56.9,0.5 37,0.5 Z M37,49.9 C28,49.9 20.7,42.6 20.7,33.6 C20.7,24.6 28,17.2 37,17.2 C46,17.2 53.3,24.5 53.3,33.5 C53.3,42.5 46,49.9 37,49.9 Z" id="Shape"></path>
                <path d="M43.2,29.7 C41.9,27.6 39.6,26.2 37,26.2 C33,26.2 29.7,29.5 29.7,33.5 C29.7,37.5 33,40.8 37,40.8 C39.6,40.8 41.9,39.4 43.2,37.3 C41.5,36.8 40.3,35.3 40.3,33.5 C40.3,31.7 41.6,30.2 43.2,29.7 Z" id="Shape"></path>
            </g>
        </g>
    </g>
</svg>